<svg width="24" height="24" viewBox="0 0 24 24" fill="none" xmlns="http://www.w3.org/2000/svg">
<path d="M11.9965 7.99798C9.79312 7.99798 7.99498 9.79612 7.99498 11.9995C7.99498 14.2029 9.79312 16.0011 11.9965 16.0011C14.1999 16.0011 15.9981 14.2029 15.9981 11.9995C15.9981 9.79612 14.1999 7.99798 11.9965 7.99798ZM23.9982 11.9995C23.9982 10.3425 24.0132 8.70043 23.9201 7.04637C23.827 5.12515 23.3888 3.42007 21.9839 2.01517C20.576 0.607278 18.8739 0.172002 16.9527 0.0789425C15.2956 -0.0141167 13.6536 0.0008929 11.9995 0.0008929C10.3425 0.0008929 8.70043 -0.0141167 7.04637 0.0789425C5.12515 0.172002 3.42007 0.61028 2.01517 2.01517C0.607279 3.42307 0.172002 5.12515 0.0789425 7.04637C-0.0141167 8.70343 0.0008929 10.3455 0.0008929 11.9995C0.0008929 13.6536 -0.0141167 15.2986 0.0789425 16.9527C0.172002 18.8739 0.610281 20.579 2.01517 21.9839C3.42307 23.3918 5.12515 23.827 7.04637 23.9201C8.70343 24.0132 10.3455 23.9982 11.9995 23.9982C13.6566 23.9982 15.2986 24.0132 16.9527 23.9201C18.8739 23.827 20.579 23.3888 21.9839 21.9839C23.3918 20.576 23.827 18.8739 23.9201 16.9527C24.0162 15.2986 23.9982 13.6566 23.9982 11.9995ZM11.9965 18.1564C8.58936 18.1564 5.83961 15.4067 5.83961 11.9995C5.83961 8.59236 8.58936 5.84261 11.9965 5.84261C15.4037 5.84261 18.1534 8.59236 18.1534 11.9995C18.1534 15.4067 15.4037 18.1564 11.9965 18.1564ZM18.4056 7.02836C17.6101 7.02836 16.9677 6.38595 16.9677 5.59045C16.9677 4.79494 17.6101 4.15253 18.4056 4.15253C19.2011 4.15253 19.8435 4.79494 19.8435 5.59045C19.8438 5.77934 19.8067 5.96643 19.7345 6.14099C19.6624 6.31556 19.5565 6.47417 19.4229 6.60774C19.2893 6.74131 19.1307 6.84721 18.9561 6.91939C18.7816 6.99157 18.5945 7.0286 18.4056 7.02836Z" fill="#6D717F" style="fill:#6D717F;fill:color(display-p3 0.4275 0.4431 0.4980);fill-opacity:1;"/>
</svg>
